<svg xmlns="http://www.w3.org/2000/svg" width="60.826" height="60.826" viewBox="0 0 60.826 60.826"><g transform="translate(-3 -3)"><path d="M60.48,44.834a38.668,38.668,0,0,1-11.929-1.892,3.3,3.3,0,0,0-3.413.811L39.833,50.41A51.307,51.307,0,0,1,16.551,27.33l6.589-5.609a3.449,3.449,0,0,0,.811-3.447A37.687,37.687,0,0,1,22.059,6.345,3.375,3.375,0,0,0,18.713,3H7.021C5.2,3,3,3.811,3,6.345c0,31.393,26.121,57.48,57.48,57.48,2.4,0,3.345-2.129,3.345-3.987V48.18A3.375,3.375,0,0,0,60.48,44.834Z" transform="translate(0 0)" fill="#fff"/></g></svg>