<svg xmlns="http://www.w3.org/2000/svg" width="86.682" height="61.152" viewBox="0 0 86.682 61.152"><g transform="translate(-18.495 -37.174)"><path d="M11.57,4H79.092c6.37,0,9.58,3.007,9.58,9.122V56.03c0,6.064-3.21,9.122-9.58,9.122H11.57c-6.37,0-9.58-3.058-9.58-9.122V13.122C1.99,7.007,5.2,4,11.57,4ZM45.306,47.825,79.653,19.645a4.026,4.026,0,0,0,.662-5.453,4.219,4.219,0,0,0-5.962-.866L45.306,33l-29-19.67a4.219,4.219,0,0,0-5.962.866,4.026,4.026,0,0,0,.662,5.453Z" transform="translate(16.504 33.174)" fill="#fff"/></g></svg>