<svg xmlns="http://www.w3.org/2000/svg" width="62.07" height="60.427" viewBox="0 0 62.07 60.427"><path d="M95.038,76.3a31.023,31.023,0,0,0-10.249,60.309c1.63.409,1.38-.749,1.38-1.539V129.7c-9.41,1.1-9.791-5.125-10.422-6.165-1.276-2.177-4.292-2.732-3.391-3.772,2.143-1.1,4.327.277,6.858,4.015,1.831,2.711,5.4,2.254,7.212,1.8a8.747,8.747,0,0,1,2.406-4.216c-9.75-1.747-13.813-7.7-13.813-14.77a13.65,13.65,0,0,1,3.349-9.133,12.1,12.1,0,0,1,.34-8.321c4.029-.361,8.217,2.885,8.543,3.141a32.79,32.79,0,0,1,15.7.021c.784-.6,4.667-3.384,8.411-3.044a12.181,12.181,0,0,1,.381,8.183,13.656,13.656,0,0,1,3.391,9.174c0,7.087-4.091,13.044-13.869,14.763a8.841,8.841,0,0,1,2.642,6.31v7.8c.055.624,0,1.241,1.04,1.241A31.025,31.025,0,0,0,95.038,76.3Z" transform="translate(-64 -76.3)" fill="#fff"/></svg>