<svg xmlns="http://www.w3.org/2000/svg" width="60.811" height="60.811" viewBox="0 0 60.811 60.811"><path d="M56.467,32H4.33A4.362,4.362,0,0,0,0,36.384V88.426a4.362,4.362,0,0,0,4.33,4.384H56.467a4.374,4.374,0,0,0,4.344-4.384V36.384A4.374,4.374,0,0,0,56.467,32ZM18.379,84.123H9.366V55.1h9.027V84.123ZM13.872,51.139A5.226,5.226,0,1,1,19.1,45.913,5.228,5.228,0,0,1,13.872,51.139ZM52.164,84.123H43.151V70.007c0-3.366-.068-7.7-4.683-7.7-4.7,0-5.416,3.665-5.416,7.452V84.123H24.039V55.1h8.646v3.964h.122a9.493,9.493,0,0,1,8.538-4.683c9.122,0,10.818,6.013,10.818,13.832Z" transform="translate(0 -32)" fill="#fff"/></svg>