<svg xmlns="http://www.w3.org/2000/svg" width="859.741" height="412.453" viewBox="0 0 859.741 412.453"><g transform="translate(-169.9 -247.3)"><g transform="translate(127 -81.76)"><path d="M67.594,729.311c0,7.794-4.784,12.27-12.5,12.27A15.679,15.679,0,0,1,42.9,735.794l3.858-5.942c2.624,2.778,5.556,4.167,7.871,4.167,2.778,0,4.476-1.7,4.476-4.862v-17.98H46.373V704H67.594Z" transform="translate(0 -0.069)" fill="#fff"/><path d="M148.574,722.529c0,10.726-8.566,18.984-19.987,18.984s-19.987-8.18-19.987-18.984,8.566-18.829,19.987-18.829S148.574,711.8,148.574,722.529Zm-31.331,0a11.561,11.561,0,0,0,11.5,11.652,11.369,11.369,0,0,0,11.267-11.652,11.236,11.236,0,0,0-11.267-11.5A11.477,11.477,0,0,0,117.243,722.529Z" transform="translate(-15 0)" fill="#fff"/><path d="M221.106,741.2l-17.98-23.845V741.2H195.1V704h7.64L220.8,727.922V704h7.948v37.2Z" transform="translate(-34.749 -0.069)" fill="#fff"/><path d="M282.875,734.042l-2.932,7.254H271.3l16.128-37.2h8.643l15.9,37.2h-8.952l-2.932-7.254Zm8.643-21.221-5.865,14.431h11.73Z" transform="translate(-52.146 -0.091)" fill="#fff"/><path d="M366.455,711.177V741.2h-8.411V711.177H346.7V704h31.1v7.1H366.455Z" transform="translate(-69.36 -0.069)" fill="#fff"/><path d="M445.534,741.2V726.533H428.711V741.2H420.3V704h8.411v15.511h16.823V704h8.411v37.2Z" transform="translate(-86.164 -0.069)" fill="#fff"/><path d="M508.075,734.042l-2.932,7.254H496.5l16.128-37.2h8.643l15.9,37.2h-8.952l-2.932-7.254Zm8.643-21.221-5.865,14.431h11.73Z" transform="translate(-103.561 -0.091)" fill="#fff"/><path d="M607.706,741.2l-17.98-23.845V741.2H581.7V704h7.64L607.4,727.922V704h7.948v37.2Z" transform="translate(-123.013 -0.069)" fill="#fff"/><path d="M738.98,722.375v14.276a27.7,27.7,0,0,1-15.048,4.862c-11.267,0-19.832-8.18-19.832-18.984,0-10.727,8.72-18.829,20.3-18.829a23.579,23.579,0,0,1,14.894,5.4l-4.707,6.019a15.575,15.575,0,0,0-10.186-4.167,11.433,11.433,0,0,0-11.653,11.575,11.562,11.562,0,0,0,11.73,11.652,16.614,16.614,0,0,0,7.254-2.006v-9.8Z" transform="translate(-150.958 0)" fill="#fff"/><path d="M803.2,730.623h-8.489v10.649H786.3V704h16.128c9.723,0,15.2,4.707,15.2,12.887,0,5.711-2.469,9.878-6.945,11.961l7.948,12.27h-9.492Zm-.772-7.022c4.63,0,7.254-2.084,7.254-6.405,0-4.167-2.624-6.173-7.254-6.173h-7.717V723.6Z" transform="translate(-169.725 -0.069)" fill="#fff"/><path d="M869.675,734.019l-2.932,7.254H858.1L874.228,704h8.643l15.9,37.2h-8.952l-2.932-7.254H869.675Zm8.643-21.221-5.865,14.431h11.73Z" transform="translate(-186.118 -0.069)" fill="#fff"/><path d="M968.534,741.2V726.533H951.711V741.2H943.3V704h8.411v15.511h16.823V704h8.411v37.2Z" transform="translate(-205.57 -0.069)" fill="#fff"/><path d="M1031.075,734.042l-2.932,7.254H1019.5l16.128-37.2h8.643l15.9,37.2h-8.952l-2.932-7.254Zm8.643-21.221-5.865,14.431h11.73Z" transform="translate(-222.967 -0.091)" fill="#fff"/><path d="M1137.5,741.2v-25.08l-9.878,21.3h-5.479l-9.878-21.3V741.2H1104.7V704h9.415l10.8,22.688,10.8-22.688h9.338v37.2Z" transform="translate(-242.419 -0.069)" fill="#fff"/></g><path d="M600,247.3a152.127,152.127,0,0,0-55.9,293.6l24.2-18.7a36.8,36.8,0,0,0,5.2,14.2,31.481,31.481,0,0,0,10.2,10c4.6,3,10.9,4.6,18.9,4.7,9.3,0,16.6-1.6,21.9-4.9a42.8,42.8,0,0,0,12.3-10.9,37.394,37.394,0,0,0,6.5-15.7l2.3-13q-4.2,2.7-8.1,5.1a62.731,62.731,0,0,1-8.2,4.1,50.43,50.43,0,0,1-9.5,2.8,58.3,58.3,0,0,1-11.6,1,53.431,53.431,0,0,1-22.6-4.7,47.578,47.578,0,0,1-16.9-13,32.07,32.07,0,0,1-3.4-4.8c-.8.5-1.6,1.1-2.5,1.6-5.4,3.4-12.8,5.1-22.1,5.1-10.3,0-18.2-1.9-23.7-5.6s-9-8-10.5-12.8l22.8-17.5c.8,3.2,2,5.4,3.8,6.8a19.258,19.258,0,0,0,5.2,3.1,20.682,20.682,0,0,0,6.8,1,16.644,16.644,0,0,0,5.4-1,13.1,13.1,0,0,0,4-2.2,7.332,7.332,0,0,0,2.4-4.7l.7-3.6v-.2a54.637,54.637,0,0,1,.9-7.9,69.9,69.9,0,0,1,1.9-7.9l21.4-121.1h24.9L592.6,410a67.767,67.767,0,0,1,12.6-6.4,64.059,64.059,0,0,1,24.3-4.7,55.56,55.56,0,0,1,14.2,1.5,26.743,26.743,0,0,1,8.8,3.8,22.027,22.027,0,0,1,5.4,5.1,52.465,52.465,0,0,1,3.8,5.8l.6-3.5a10.672,10.672,0,0,1,3.9-6.5,11.047,11.047,0,0,1,7.2-2.8h15.5L668.3,519.5a77.937,77.937,0,0,1-6,18.6A152.012,152.012,0,0,0,600,247.3Zm12.1,52.3a14.652,14.652,0,0,1-5.2,8.8,14.268,14.268,0,0,1-9.5,3.6,10.061,10.061,0,0,1-8.2-3.6,10.391,10.391,0,0,1-2.1-8.8,15.179,15.179,0,0,1,5.2-8.9,14.268,14.268,0,0,1,9.5-3.6,10.061,10.061,0,0,1,8.2,3.6A10.523,10.523,0,0,1,612.1,299.6Z" fill="#fff"/><path d="M648.1,434.3a26.813,26.813,0,0,0-9.9-7.6,31.845,31.845,0,0,0-13.2-2.8,36.464,36.464,0,0,0-14.3,2.8,45.074,45.074,0,0,0-12.6,7.6,47.209,47.209,0,0,0-9.6,11.3,38.449,38.449,0,0,0-3.6,7.7l-2.2,12.4h0a30.594,30.594,0,0,0,.9,7.4,29,29,0,0,0,5.6,11.4,26.813,26.813,0,0,0,9.9,7.6,31.608,31.608,0,0,0,13.3,2.7,38.906,38.906,0,0,0,14.2-2.7,45.074,45.074,0,0,0,12.6-7.6,47.667,47.667,0,0,0,9.5-11.4,38.616,38.616,0,0,0,5.1-13.7,31.492,31.492,0,0,0-.3-13.7A28.649,28.649,0,0,0,648.1,434.3Z" fill="#fff"/></g></svg>